<svg width="25" height="24" viewBox="0 0 25 24" fill="none" xmlns="http://www.w3.org/2000/svg">
<path fill-rule="evenodd" clip-rule="evenodd" d="M16.1553 10.4697C15.8624 10.1768 15.3876 10.1768 15.0947 10.4697L13.375 12.1893V4C13.375 3.58579 13.0392 3.25 12.625 3.25C12.2108 3.25 11.875 3.58579 11.875 4L11.875 12.1893L10.1553 10.4697C9.86244 10.1768 9.38756 10.1768 9.09467 10.4697C8.80178 10.7626 8.80178 11.2374 9.09467 11.5303L12.0947 14.5303C12.3876 14.8232 12.8624 14.8232 13.1553 14.5303L16.1553 11.5303C16.4482 11.2374 16.4482 10.7626 16.1553 10.4697Z" fill="#23F7DD"/>
<path d="M18.3726 12C17.9246 12 17.5327 12.2742 17.216 12.591L14.216 15.591C13.3373 16.4697 11.9127 16.4697 11.034 15.591L8.03401 12.591C7.71726 12.2742 7.32541 12 6.87745 12H4.625C4.625 16.4183 8.20672 20 12.625 20C17.0433 20 20.625 16.4183 20.625 12H18.3726Z" fill="#23F7DD"/>
</svg>
