<svg width="20" height="20" viewBox="0 0 20 20" fill="none" xmlns="http://www.w3.org/2000/svg">
<path fill-rule="evenodd" clip-rule="evenodd" d="M1.875 10C1.875 5.5125 5.5125 1.875 10 1.875C14.4875 1.875 18.125 5.5125 18.125 10C18.125 14.4875 14.4875 18.125 10 18.125C5.5125 18.125 1.875 14.4875 1.875 10ZM11.3567 6.73583C10.615 6.08833 9.385 6.08833 8.64417 6.73583C8.5194 6.84501 8.35638 6.90016 8.19096 6.88914C8.02553 6.87813 7.87126 6.80185 7.76208 6.67708C7.6529 6.55232 7.59775 6.3893 7.60877 6.22387C7.61979 6.05845 7.69607 5.90418 7.82083 5.795C9.0325 4.735 10.9675 4.735 12.1792 5.795C13.44 6.89833 13.44 8.72667 12.1792 9.83C11.9683 10.0139 11.7337 10.1686 11.4817 10.29C10.9183 10.5633 10.625 10.935 10.625 11.25V11.875C10.625 12.0408 10.5592 12.1997 10.4419 12.3169C10.3247 12.4342 10.1658 12.5 10 12.5C9.83424 12.5 9.67527 12.4342 9.55806 12.3169C9.44085 12.1997 9.375 12.0408 9.375 11.875V11.25C9.375 10.1842 10.2583 9.49417 10.9375 9.165C11.0892 9.09167 11.23 8.99917 11.3567 8.88917C12.0483 8.28333 12.0483 7.34167 11.3567 6.73583ZM10 15C10.1658 15 10.3247 14.9342 10.4419 14.8169C10.5592 14.6997 10.625 14.5408 10.625 14.375C10.625 14.2092 10.5592 14.0503 10.4419 13.9331C10.3247 13.8158 10.1658 13.75 10 13.75C9.83424 13.75 9.67527 13.8158 9.55806 13.9331C9.44085 14.0503 9.375 14.2092 9.375 14.375C9.375 14.5408 9.44085 14.6997 9.55806 14.8169C9.67527 14.9342 9.83424 15 10 15Z" fill="white"/>
</svg>
