<svg width="20" height="20" viewBox="0 0 20 20" fill="none" xmlns="http://www.w3.org/2000/svg">
<path d="M13.492 1.6665H6.50866C3.47533 1.6665 1.66699 3.47484 1.66699 6.50817V13.4832C1.66699 16.5248 3.47533 18.3332 6.50866 18.3332H13.4837C16.517 18.3332 18.3253 16.5248 18.3253 13.4915V6.50817C18.3337 3.47484 16.5253 1.6665 13.492 1.6665ZM6.39199 4.58317C6.39199 4.2415 6.67533 3.95817 7.01699 3.95817C7.35866 3.95817 7.64199 4.2415 7.64199 4.58317V7.83317C7.64199 8.17484 7.35866 8.45817 7.01699 8.45817C6.67533 8.45817 6.39199 8.17484 6.39199 7.83317V4.58317ZM7.93616 13.6923C7.85172 13.7266 7.779 13.7845 7.72679 13.8592C7.67459 13.9339 7.64514 14.0221 7.64199 14.1132V15.4165C7.64199 15.7582 7.35866 16.0415 7.01699 16.0415C6.67533 16.0415 6.39199 15.7582 6.39199 15.4165V14.1132C6.38874 14.0221 6.35925 13.934 6.30706 13.8593C6.25487 13.7846 6.18221 13.7267 6.09783 13.6923C5.69704 13.5153 5.35632 13.2257 5.1171 12.8587C4.87787 12.4916 4.75045 12.063 4.75033 11.6248C4.75033 10.3748 5.76699 9.34984 7.01699 9.34984C8.26699 9.34984 9.29199 10.3665 9.29199 11.6248C9.29199 12.5482 8.73366 13.339 7.93616 13.6923ZM13.6087 15.4165C13.6087 15.7582 13.3253 16.0415 12.9837 16.0415C12.642 16.0415 12.3587 15.7582 12.3587 15.4165V12.1665C12.3587 11.8248 12.642 11.5415 12.9837 11.5415C13.3253 11.5415 13.6087 11.8248 13.6087 12.1665V15.4165ZM12.9837 10.6415C11.7337 10.6415 10.7087 9.62484 10.7087 8.3665C10.7087 7.44317 11.267 6.65234 12.0645 6.299C12.1489 6.26477 12.2217 6.2068 12.2739 6.13212C12.3261 6.05744 12.3555 5.96923 12.3587 5.87817V4.58317C12.3587 4.2415 12.642 3.95817 12.9837 3.95817C13.3253 3.95817 13.6087 4.2415 13.6087 4.58317V5.8865C13.6087 6.07234 13.7337 6.2315 13.9028 6.30734C14.3036 6.48433 14.6443 6.77396 14.8836 7.14101C15.1228 7.50806 15.2502 7.93671 15.2503 8.37484C15.2503 9.62484 14.2337 10.6415 12.9837 10.6415Z" fill="white"/>
</svg>
