<svg width="20" height="20" viewBox="0 0 20 20" fill="none" xmlns="http://www.w3.org/2000/svg">
<path d="M12.3747 3.29159V6.45825H11.1247V3.29159C11.1247 3.06659 10.9247 2.95825 10.7913 2.95825C10.7497 2.95825 10.708 2.96659 10.6663 2.98325L4.05801 5.47492C3.61634 5.64159 3.33301 6.05825 3.33301 6.53325V7.09159C2.57467 7.65825 2.08301 8.56659 2.08301 9.59159V6.53325C2.08301 5.54159 2.69134 4.65825 3.61634 4.30825L10.233 1.80825C10.4163 1.74159 10.608 1.70825 10.7913 1.70825C11.6247 1.70825 12.3747 2.38325 12.3747 3.29159ZM17.9163 12.0833V12.9166C17.9164 13.0257 17.8736 13.1304 17.7973 13.2083C17.7209 13.2862 17.6171 13.3311 17.508 13.3333H16.2913C15.8497 13.3333 15.4497 13.0083 15.4163 12.5749C15.3913 12.3166 15.4913 12.0749 15.658 11.9083C15.7335 11.8301 15.8242 11.7683 15.9245 11.7267C16.0249 11.6852 16.1327 11.6647 16.2413 11.6666H17.4997C17.7413 11.6749 17.9163 11.8583 17.9163 12.0833Z" fill="white"/>
<path d="M16.233 10.7918H17.083C17.5413 10.7918 17.9163 10.4168 17.9163 9.9585V9.59183C17.9163 7.86683 16.508 6.4585 14.783 6.4585H5.21634C4.50801 6.4585 3.85801 6.69183 3.33301 7.09183C2.57467 7.6585 2.08301 8.56683 2.08301 9.59183V15.2002C2.08301 16.9252 3.49134 18.3335 5.21634 18.3335H14.783C16.508 18.3335 17.9163 16.9252 17.9163 15.2002V15.0418C17.9163 14.5835 17.5413 14.2085 17.083 14.2085H16.358C15.558 14.2085 14.7913 13.7168 14.583 12.9418C14.408 12.3085 14.6163 11.7002 15.033 11.2918C15.3413 10.9752 15.7663 10.7918 16.233 10.7918ZM11.6663 10.6252H5.83301C5.49134 10.6252 5.20801 10.3418 5.20801 10.0002C5.20801 9.6585 5.49134 9.37516 5.83301 9.37516H11.6663C12.008 9.37516 12.2913 9.6585 12.2913 10.0002C12.2913 10.3418 12.008 10.6252 11.6663 10.6252Z" fill="white"/>
</svg>
