<svg width="22" height="22" viewBox="0 0 22 22" fill="none" xmlns="http://www.w3.org/2000/svg">
<path fill-rule="evenodd" clip-rule="evenodd" d="M13.0628 4.1061L13.0628 6.90896C13.0627 7.01091 13.0624 7.15626 13.0819 7.28104C13.1058 7.43358 13.1842 7.72808 13.4892 7.90713C13.7829 8.07956 14.0701 8.01552 14.2066 7.97308C14.3257 7.93608 14.4562 7.87391 14.5535 7.82755L15.5837 7.33819L16.6138 7.82755C16.7111 7.87391 16.8417 7.93608 16.9607 7.97308C17.0972 8.01552 17.3845 8.07956 17.6781 7.90713C17.9831 7.72808 18.0615 7.43358 18.0854 7.28104C18.1049 7.15627 18.1047 7.01093 18.1045 6.90898L18.1045 2.77855C18.2079 2.77369 18.3094 2.76958 18.4086 2.76613C19.3911 2.7319 20.1668 3.53887 20.1668 4.52195V14.7981C20.1668 15.8165 19.3363 16.6405 18.3199 16.7041C17.4312 16.7597 16.3871 16.8684 15.5835 17.0804C14.5922 17.342 13.4083 17.9083 12.4921 18.3967C12.2363 18.533 11.9655 18.6318 11.6878 18.693V4.74257C11.9819 4.67055 12.2674 4.55699 12.5345 4.40238C12.7034 4.30461 12.8806 4.2049 13.0628 4.1061ZM18.084 11.7498C18.1761 12.1181 17.9521 12.4914 17.5837 12.5835L13.9171 13.5002C13.5487 13.5923 13.1754 13.3683 13.0834 12.9999C12.9913 12.6316 13.2152 12.2583 13.5836 12.1662L17.2502 11.2496C17.6186 11.1575 17.9919 11.3814 18.084 11.7498Z" fill="white"/>
<path fill-rule="evenodd" clip-rule="evenodd" d="M10.3128 4.77933C10.0064 4.72113 9.70708 4.61789 9.42556 4.46903C8.5216 3.99103 7.3786 3.45047 6.41683 3.19668C5.60419 2.98224 4.54571 2.87351 3.6507 2.81851C2.64594 2.75675 1.8335 3.57452 1.8335 4.58118V14.7981C1.8335 15.8165 2.66404 16.6405 3.68045 16.7041C4.56909 16.7597 5.61318 16.8684 6.41683 17.0804C7.40816 17.342 8.59202 17.9083 9.50821 18.3967C9.76409 18.5331 10.0351 18.6319 10.3128 18.6931V4.77933ZM3.91669 8.08311C4.00878 7.71476 4.38204 7.4908 4.7504 7.58288L8.41707 8.49955C8.78543 8.59164 9.00939 8.96491 8.9173 9.33327C8.82521 9.70163 8.45194 9.92559 8.08358 9.8335L4.41692 8.91683C4.04856 8.82474 3.8246 8.45147 3.91669 8.08311ZM4.7504 11.2496C4.38204 11.1575 4.00878 11.3814 3.91669 11.7498C3.8246 12.1181 4.04856 12.4914 4.41692 12.5835L8.08358 13.5002C8.45194 13.5923 8.82521 13.3683 8.9173 12.9999C9.00939 12.6316 8.78543 12.2583 8.41707 12.1662L4.7504 11.2496Z" fill="white"/>
<path d="M16.7295 2.88828C16.1611 2.95548 15.6024 3.05381 15.1252 3.19668C14.9038 3.26296 14.6727 3.34698 14.4378 3.44322V3.62071V6.36023L15.1247 6.03396L15.1328 6.02989C15.1777 6.00692 15.367 5.91013 15.5837 5.91013C15.6272 5.91013 15.6697 5.91404 15.7101 5.92049C15.8706 5.94608 15.9987 6.01154 16.0345 6.02989L16.0426 6.03396L16.7295 6.36023V3.34262V2.88828Z" fill="white"/>
</svg>
