<svg width="20" height="20" viewBox="0 0 20 20" fill="none" xmlns="http://www.w3.org/2000/svg">
<path d="M15.4497 3.47487L10.8663 1.7582C10.3913 1.5832 9.61634 1.5832 9.14134 1.7582L4.55801 3.47487C3.67467 3.8082 2.95801 4.84154 2.95801 5.7832V12.5332C2.95801 13.2082 3.39967 14.0999 3.94134 14.4999L8.52467 17.9249C9.33301 18.5332 10.658 18.5332 11.4663 17.9249L16.0497 14.4999C16.5913 14.0915 17.033 13.2082 17.033 12.5332V5.7832C17.0413 4.84154 16.3247 3.8082 15.4497 3.47487ZM10.6247 10.7249V12.9165C10.6247 13.2582 10.3413 13.5415 9.99967 13.5415C9.65801 13.5415 9.37467 13.2582 9.37467 12.9165V10.7249C8.95357 10.5929 8.58535 10.3304 8.3232 9.97536C8.06106 9.62034 7.91858 9.19117 7.91634 8.74987C7.91634 8.19733 8.13583 7.66743 8.52654 7.27673C8.91724 6.88603 9.44714 6.66654 9.99967 6.66654C10.5522 6.66654 11.0821 6.88603 11.4728 7.27673C11.8635 7.66743 12.083 8.19733 12.083 8.74987C12.083 9.6832 11.4663 10.4582 10.6247 10.7249Z" fill="white"/>
</svg>
