<svg width="25" height="24" viewBox="0 0 25 24" fill="none" xmlns="http://www.w3.org/2000/svg">
<path fill-rule="evenodd" clip-rule="evenodd" d="M9.71967 7.90533C10.0126 8.19822 10.4874 8.19822 10.7803 7.90533L12.5 6.18566L12.5 14.375C12.5 14.7892 12.8358 15.125 13.25 15.125C13.6642 15.125 14 14.7892 14 14.375V6.18566L15.7197 7.90533C16.0126 8.19822 16.4874 8.19822 16.7803 7.90533C17.0732 7.61244 17.0732 7.13756 16.7803 6.84467L13.7803 3.84467C13.4874 3.55178 13.0126 3.55178 12.7197 3.84467L9.71967 6.84467C9.42678 7.13756 9.42678 7.61244 9.71967 7.90533Z" fill="#23F7DD"/>
<path d="M13.25 20.375C17.6683 20.375 21.25 16.7933 21.25 12.375L17.5 12.375C16.5572 12.375 16.0858 12.375 15.7929 12.6679C15.5 12.9608 15.5 13.4322 15.5 14.375C15.5 15.6176 14.4926 16.625 13.25 16.625C12.0074 16.625 11 15.6176 11 14.375C11 13.4322 11 12.9608 10.7071 12.6679C10.4142 12.375 9.94281 12.375 9 12.375H5.25C5.25 16.7933 8.83172 20.375 13.25 20.375Z" fill="#23F7DD"/>
</svg>
