<svg width="18" height="18" viewBox="0 0 18 18" fill="none" xmlns="http://www.w3.org/2000/svg">
<path fill-rule="evenodd" clip-rule="evenodd" d="M12.125 0.875H16.5C16.6658 0.875 16.8247 0.940848 16.9419 1.05806C17.0592 1.17527 17.125 1.33424 17.125 1.5V5.875C17.125 6.04076 17.0592 6.19973 16.9419 6.31694C16.8247 6.43415 16.6658 6.5 16.5 6.5C16.3342 6.5 16.1753 6.43415 16.0581 6.31694C15.9408 6.19973 15.875 6.04076 15.875 5.875V3.00833L5.69167 13.1917C5.57319 13.3021 5.41648 13.3622 5.25456 13.3593C5.09265 13.3565 4.93816 13.2909 4.82365 13.1764C4.70914 13.0618 4.64354 12.9074 4.64069 12.7454C4.63783 12.5835 4.69793 12.4268 4.80833 12.3083L14.9917 2.125H12.125C11.9592 2.125 11.8003 2.05915 11.6831 1.94194C11.5658 1.82473 11.5 1.66576 11.5 1.5C11.5 1.33424 11.5658 1.17527 11.6831 1.05806C11.8003 0.940848 11.9592 0.875 12.125 0.875ZM3.375 4.625C3.04348 4.625 2.72554 4.7567 2.49112 4.99112C2.2567 5.22554 2.125 5.54348 2.125 5.875V14.625C2.125 14.9565 2.2567 15.2745 2.49112 15.5089C2.72554 15.7433 3.04348 15.875 3.375 15.875H12.125C12.4565 15.875 12.7745 15.7433 13.0089 15.5089C13.2433 15.2745 13.375 14.9565 13.375 14.625V7.75C13.375 7.58424 13.4408 7.42527 13.5581 7.30806C13.6753 7.19085 13.8342 7.125 14 7.125C14.1658 7.125 14.3247 7.19085 14.4419 7.30806C14.5592 7.42527 14.625 7.58424 14.625 7.75V14.625C14.625 15.288 14.3616 15.9239 13.8928 16.3928C13.4239 16.8616 12.788 17.125 12.125 17.125H3.375C2.71196 17.125 2.07607 16.8616 1.60723 16.3928C1.13839 15.9239 0.875 15.288 0.875 14.625V5.875C0.875 5.21196 1.13839 4.57607 1.60723 4.10723C2.07607 3.63839 2.71196 3.375 3.375 3.375H10.25C10.4158 3.375 10.5747 3.44085 10.6919 3.55806C10.8092 3.67527 10.875 3.83424 10.875 4C10.875 4.16576 10.8092 4.32473 10.6919 4.44194C10.5747 4.55915 10.4158 4.625 10.25 4.625H3.375Z" fill="#8F8F8F"/>
</svg>
