<svg width="25" height="24" viewBox="0 0 25 24" fill="none" xmlns="http://www.w3.org/2000/svg">
<path d="M11.375 2.07349C10.7687 2.18658 10.0566 2.43035 8.96272 2.80479L8.38991 3.00086C5.38332 4.03003 3.88003 4.54461 3.50252 5.08248C3.13325 5.6086 3.12518 7.14981 3.125 10.2095L11.375 7.4595V2.07349Z" fill="#23F7DD"/>
<path d="M11.375 9.04064L3.125 11.7906V11.9914C3.125 17.6295 7.36396 20.3656 10.0236 21.5273C10.5343 21.7504 10.8642 21.8946 11.375 21.9597V9.04064Z" fill="#23F7DD"/>
<path d="M12.875 21.9597V9.04064L21.125 11.7906V11.9914C21.125 17.6295 16.886 20.3656 14.2264 21.5273C13.7157 21.7504 13.3858 21.8946 12.875 21.9597Z" fill="#23F7DD"/>
<path d="M12.875 7.4595V2.07349C13.4813 2.18658 14.1934 2.43035 15.2873 2.80479L15.8601 3.00086C18.8667 4.03003 20.37 4.54461 20.7475 5.08248C21.1168 5.6086 21.1248 7.14981 21.125 10.2095L12.875 7.4595Z" fill="#23F7DD"/>
</svg>
