<svg width="25" height="24" viewBox="0 0 25 24" fill="none" xmlns="http://www.w3.org/2000/svg">
<path d="M2.375 12C2.375 7.28595 2.375 4.92893 3.83947 3.46447C5.30393 2 7.66095 2 12.375 2C16.509 2 18.8303 2 20.3267 2.98767L15.125 8.18934V6.25C15.125 5.83579 14.7892 5.5 14.375 5.5C13.9608 5.5 13.625 5.83579 13.625 6.25V10C13.625 10.4142 13.9608 10.75 14.375 10.75H18.125C18.5392 10.75 18.875 10.4142 18.875 10C18.875 9.58579 18.5392 9.25 18.125 9.25H16.1857L21.3873 4.04832C22.375 5.54466 22.375 7.866 22.375 12C22.375 16.714 22.375 19.0711 20.9105 20.5355C19.4461 22 17.089 22 12.375 22C8.241 22 5.91966 22 4.42333 21.0123L9.625 15.8107V17.75C9.625 18.1642 9.96079 18.5 10.375 18.5C10.7892 18.5 11.125 18.1642 11.125 17.75V14C11.125 13.5858 10.7892 13.25 10.375 13.25H6.625C6.21079 13.25 5.875 13.5858 5.875 14C5.875 14.4142 6.21079 14.75 6.625 14.75H8.56434L3.36267 19.9517C2.375 18.4553 2.375 16.134 2.375 12Z" fill="#23F7DD"/>
</svg>
