<svg width="23" height="22" viewBox="0 0 23 22" fill="none" xmlns="http://www.w3.org/2000/svg">
<g clip-path="url(#clip0_48_740)">
<path fill-rule="evenodd" clip-rule="evenodd" d="M17.3524 20.8806C17.6475 21.0896 18.0279 21.1419 18.3671 21.0136C18.7063 20.8843 18.9556 20.5946 19.0308 20.2436C19.8274 16.4999 21.7597 7.02431 22.4848 3.61889C22.5398 3.36222 22.4481 3.09548 22.2464 2.92406C22.0448 2.75264 21.7652 2.70314 21.5159 2.79573C17.6723 4.21839 5.83536 8.65964 0.997198 10.4499C0.690115 10.5636 0.490281 10.8587 0.500365 11.1823C0.511365 11.5068 0.729531 11.7882 1.04395 11.8826C3.2137 12.5316 6.06178 13.4346 6.06178 13.4346C6.06178 13.4346 7.39278 17.4541 8.0867 19.4983C8.17378 19.755 8.37453 19.9566 8.63945 20.0263C8.90345 20.0951 9.18578 20.0226 9.38286 19.8366C10.4975 18.7842 12.2209 17.1571 12.2209 17.1571C12.2209 17.1571 15.4952 19.5579 17.3524 20.8806ZM7.25986 12.9267L8.79895 18.0032L9.14086 14.7885C9.14086 14.7885 15.0873 9.42506 18.4771 6.36797C18.5761 6.27814 18.5899 6.12781 18.5074 6.02239C18.4258 5.91698 18.2754 5.89223 18.1627 5.96373C14.2339 8.47264 7.25986 12.9267 7.25986 12.9267Z" fill="white"/>
</g>
<defs>
<clipPath id="clip0_48_740">
<rect width="22" height="22" fill="white" transform="translate(0.5)"/>
</clipPath>
</defs>
</svg>
