<svg width="28" height="28" viewBox="0 0 28 28" fill="none" xmlns="http://www.w3.org/2000/svg">
<g clip-path="url(#clip0_162_9915)">
<path d="M21.685 9.36803H19.208C18.9218 9.36803 18.6472 9.24584 18.4544 9.03054L17.4496 7.9017C17.2977 7.73295 17.0874 7.63403 16.8596 7.63403C16.6318 7.63403 16.4214 7.73295 16.2696 7.9017L15.405 8.87343C15.1246 9.18765 14.7156 9.37385 14.295 9.37385H0.736073C0.350511 10.462 0.0993115 11.6199 0 12.8244H12.7995C13.0273 12.8244 13.2376 12.7313 13.3954 12.5684L14.5871 11.329C14.7332 11.1719 14.9435 11.0846 15.1538 11.0846H15.2005C15.4283 11.0846 15.6386 11.1835 15.7905 11.3522L16.7953 12.4811C16.9881 12.6964 17.2627 12.8186 17.5489 12.8186H27.9942C27.8948 11.6199 27.6436 10.4561 27.2581 9.36221L21.685 9.36803Z" fill="white"/>
<path d="M7.74687 20.0859C7.97471 20.0859 8.18501 19.9928 8.34274 19.8299L9.53448 18.5905C9.68637 18.4334 9.89083 18.3461 10.107 18.3461H10.1537C10.3815 18.3461 10.5977 18.445 10.7437 18.6079L11.7485 19.7368C11.9413 19.9521 12.2159 20.0743 12.5021 20.0743H26.6628C27.1944 18.9803 27.58 17.8108 27.8136 16.583H14.2196C13.9334 16.583 13.6588 16.4608 13.466 16.2455L12.4612 15.1283C12.3094 14.9596 12.0991 14.8665 11.8712 14.8665C11.6434 14.8665 11.4272 14.9654 11.2812 15.1283L10.4166 16.1C10.1362 16.4201 9.72726 16.6005 9.30081 16.6005H0.193359C0.427033 17.8282 0.812596 18.9978 1.3442 20.0917L7.74687 20.0859Z" fill="white"/>
<path d="M17.7889 5.59185C18.0168 5.59185 18.2271 5.49875 18.3848 5.33583L19.5765 4.09643C19.7226 3.93932 19.9329 3.85204 20.149 3.85204H20.1958C20.4236 3.85204 20.6339 3.95096 20.7858 4.1197L21.7906 5.25436C21.9834 5.46966 22.2579 5.59185 22.5442 5.59185H25.2373C22.6727 2.19368 18.5951 0 14.0034 0C9.4117 0 5.32825 2.19368 2.76367 5.59185H17.7889Z" fill="white"/>
<path d="M12.3852 23.5485H8.7048C8.41855 23.5485 8.14398 23.4263 7.9512 23.211L6.9464 22.0822C6.79451 21.9134 6.58421 21.8203 6.35637 21.8203C6.12854 21.8203 5.91239 21.9192 5.76635 22.0822L4.90175 23.0539C4.62134 23.3739 4.21241 23.5543 3.78596 23.5543H3.72754C6.29211 26.2891 9.94327 28.0057 14.0034 28.0057C18.0634 28.0057 21.7088 26.2891 24.2792 23.5543L12.3852 23.5485Z" fill="white"/>
</g>
<defs>
<clipPath id="clip0_162_9915">
<rect width="28" height="28" fill="white"/>
</clipPath>
</defs>
</svg>
